name rise30.6535peak61.5555fall82.9339.mot
datacolumns 19
datarows 23
range 14.81161000000000 14.84828000000000
endheader
time	ground_force1_vx	ground_force1_vy	ground_force1_vz	ground_force1_px	ground_force1_py	ground_force1_pz	ground_force2_vx	ground_force2_vy	ground_force2_vz	ground_force2_px	ground_force2_py	ground_force2_pz	ground_torque1_x	ground_torque1_y	ground_torque1_z	ground_torque2_x	ground_torque2_y	ground_torque2_z	
14.81161000000000	-9.22184200000000	41.88621700000000	-9.07873100000000	0.32553500000000	0.00000000000000	0.08974400000000	-56.97702500000000	770.21188500000005	-37.63577300000000	0.14866400000000	0.00000000000000	-0.07274900000000	0.00000000000000	-5.84587000000000	0.00000000000000	0.00000000000000	-17.57125700000000	0.00000000000000	
14.81328100000000	-10.02797500000000	49.06027800000000	-10.19447000000000	0.33008900000000	0.00000000000000	0.09041900000000	-58.05077800000000	767.34420899999998	-37.36383600000000	0.14748600000000	0.00000000000000	-0.07267000000000	0.00000000000000	-6.65593100000000	0.00000000000000	0.00000000000000	-17.59272700000000	0.00000000000000	
14.81494200000000	-10.63948300000000	56.32088600000000	-11.20357300000000	0.33442000000000	0.00000000000000	0.09102200000000	-59.13701300000000	764.36044100000004	-37.07684100000000	0.14631300000000	0.00000000000000	-0.07259000000000	0.00000000000000	-7.41809500000000	0.00000000000000	0.00000000000000	-17.61508800000000	0.00000000000000	
14.81660400000000	-11.03234900000000	63.57605100000000	-12.08220800000000	0.33855000000000	0.00000000000000	0.09156300000000	-60.23383400000000	761.25661900000000	-36.77438900000000	0.14514500000000	0.00000000000000	-0.07250800000000	0.00000000000000	-8.11548800000000	0.00000000000000	0.00000000000000	-17.63802400000000	0.00000000000000	
14.81827700000000	-11.19356600000000	70.75718000000001	-12.81477100000000	0.34249900000000	0.00000000000000	0.09205200000000	-61.33924100000000	758.02876600000002	-36.45609800000000	0.14398300000000	0.00000000000000	-0.07242400000000	0.00000000000000	-8.73600000000000	0.00000000000000	0.00000000000000	-17.66120300000000	0.00000000000000	
14.81993600000000	-11.12084900000000	77.82116700000000	-13.39396500000000	0.34628200000000	0.00000000000000	0.09249600000000	-62.45113600000000	754.67290300000002	-36.12160700000000	0.14282800000000	0.00000000000000	-0.07233900000000	0.00000000000000	-9.27254300000000	0.00000000000000	0.00000000000000	-17.68428400000000	0.00000000000000	
14.82161100000000	-10.82151500000000	84.75003700000001	-13.82019100000000	0.34991200000000	0.00000000000000	0.09290100000000	-63.56732600000000	751.18506400000001	-35.77057500000000	0.14168200000000	0.00000000000000	-0.07225100000000	0.00000000000000	-9.72285600000000	0.00000000000000	0.00000000000000	-17.70691200000000	0.00000000000000	
14.82327400000000	-10.31076100000000	91.54856599999999	-14.10041300000000	0.35340100000000	0.00000000000000	0.09327200000000	-64.68552400000000	747.56131000000005	-35.40269100000000	0.14054400000000	0.00000000000000	-0.07216100000000	0.00000000000000	-10.08895400000000	0.00000000000000	0.00000000000000	-17.72872400000000	0.00000000000000	
14.82493800000000	-9.60959800000000	98.24044499999999	-14.24667600000000	0.35675600000000	0.00000000000000	0.09361300000000	-65.80335700000001	743.79774499999996	-35.01766900000000	0.13941700000000	0.00000000000000	-0.07206900000000	0.00000000000000	-10.37630700000000	0.00000000000000	0.00000000000000	-17.74934700000000	0.00000000000000	
14.82661400000000	-8.74264800000000	104.86354000000000	-14.27446900000000	0.35998600000000	0.00000000000000	0.09392800000000	-66.91837000000000	739.89053000000001	-34.61525800000000	0.13830100000000	0.00000000000000	-0.07197500000000	0.00000000000000	-10.59288900000000	0.00000000000000	0.00000000000000	-17.76839800000000	0.00000000000000	
14.82828100000000	-7.73603200000000	111.46480600000000	-14.20108600000000	0.36309600000000	0.00000000000000	0.09421900000000	-68.02802900000000	735.83590100000004	-34.19524000000000	0.13719600000000	0.00000000000000	-0.07187800000000	0.00000000000000	-10.74816900000000	0.00000000000000	0.00000000000000	-17.78549000000000	0.00000000000000	
14.82993700000000	-6.61549100000000	118.09532799999999	-14.04412900000000	0.36609400000000	0.00000000000000	0.09449000000000	-69.12973100000001	731.63018399999999	-33.75743600000000	0.13610400000000	0.00000000000000	-0.07177900000000	0.00000000000000	-10.85216100000000	0.00000000000000	0.00000000000000	-17.80022800000000	0.00000000000000	
14.83160200000000	-5.40485200000000	124.80586000000000	-13.82023900000000	0.36898400000000	0.00000000000000	0.09474300000000	-70.22080600000000	727.26981499999999	-33.30170700000000	0.13502600000000	0.00000000000000	-0.07167800000000	0.00000000000000	-10.91458400000000	0.00000000000000	0.00000000000000	-17.81221300000000	0.00000000000000	
14.83327400000000	-4.12490500000000	131.64312899999999	-13.54411800000000	0.37176900000000	0.00000000000000	0.09497900000000	-71.29852600000000	722.75135299999999	-32.82795700000000	0.13396100000000	0.00000000000000	-0.07157400000000	0.00000000000000	-10.94419300000000	0.00000000000000	0.00000000000000	-17.82104500000000	0.00000000000000	
14.83493600000000	-2.79269400000000	138.64705300000000	-13.22786700000000	0.37445400000000	0.00000000000000	0.09520000000000	-72.36011300000000	718.07150200000001	-32.33613700000000	0.13291200000000	0.00000000000000	-0.07146800000000	0.00000000000000	-10.94829200000000	0.00000000000000	0.00000000000000	-17.82632000000000	0.00000000000000	
14.83660600000000	-1.42122100000000	145.84891999999999	-12.88064400000000	0.37704200000000	0.00000000000000	0.09540800000000	-73.40274200000000	713.22713099999999	-31.82624200000000	0.13187700000000	0.00000000000000	-0.07135900000000	0.00000000000000	-10.93244700000000	0.00000000000000	0.00000000000000	-17.82763400000000	0.00000000000000	
14.83827600000000	-0.01948900000000	153.27050399999999	-12.50859300000000	0.37953600000000	0.00000000000000	0.09560300000000	-74.42355499999999	708.21528799999999	-31.29832200000000	0.13085800000000	0.00000000000000	-0.07124700000000	0.00000000000000	-10.90038000000000	0.00000000000000	0.00000000000000	-17.82458300000000	0.00000000000000	
14.83993900000000	1.40715400000000	160.92400100000000	-12.11501500000000	0.38193800000000	0.00000000000000	0.09578700000000	-75.41966100000000	703.03322200000002	-30.75247600000000	0.12985600000000	0.00000000000000	-0.07113300000000	0.00000000000000	-10.85402100000000	0.00000000000000	0.00000000000000	-17.81676800000000	0.00000000000000	
14.84162000000000	2.85647900000000	168.81264700000000	-11.70071800000000	0.38425200000000	0.00000000000000	0.09596100000000	-76.38815400000000	697.67840400000000	-30.18885500000000	0.12887100000000	0.00000000000000	-0.07101600000000	0.00000000000000	-10.79369300000000	0.00000000000000	0.00000000000000	-17.80378900000000	0.00000000000000	
14.84327200000000	4.32869800000000	176.93184700000000	-11.26449400000000	0.38647900000000	0.00000000000000	0.09612500000000	-77.32611199999999	692.14854300000002	-29.60767000000000	0.12790300000000	0.00000000000000	-0.07089600000000	0.00000000000000	-10.71838200000000	0.00000000000000	0.00000000000000	-17.78525600000000	0.00000000000000	
14.84493600000000	5.82574100000000	185.27062799999999	-10.80364900000000	0.38862100000000	0.00000000000000	0.09628000000000	-78.23061400000000	686.44160399999998	-29.00918300000000	0.12695300000000	0.00000000000000	-0.07077300000000	0.00000000000000	-10.62606200000000	0.00000000000000	0.00000000000000	-17.76078200000000	0.00000000000000	
14.84661000000000	7.35053600000000	193.81326100000001	-10.31455600000000	0.39068000000000	0.00000000000000	0.09642800000000	-79.09874100000000	680.55582700000002	-28.39371500000000	0.12602200000000	0.00000000000000	-0.07064800000000	0.00000000000000	-10.51404400000000	0.00000000000000	0.00000000000000	-17.72998900000000	0.00000000000000	
14.84828000000000	8.90635200000000	202.54088600000000	-9.79317000000000	0.39265700000000	0.00000000000000	0.09656800000000	-79.92759200000000	674.48974299999998	-27.76164800000000	0.12510900000000	0.00000000000000	-0.07051900000000	0.00000000000000	-10.37931200000000	0.00000000000000	0.00000000000000	-17.69250800000000	0.00000000000000	
